<svg width="131" height="93" viewBox="0 0 131 93" fill="none" xmlns="http://www.w3.org/2000/svg">
<g clip-path="url(#clip0)">
<path d="M130.229 61.8212C130.229 78.3587 101.183 91.765 65.3539 91.765C29.5246 91.765 0.479492 78.3589 0.479492 61.8212C0.479492 45.2836 29.5249 31.8774 65.3542 31.8774C101.183 31.8774 130.229 45.2837 130.229 61.8212V61.8212Z" fill="#BFBCAF"/>
<path d="M130.229 57.6535C130.229 74.1909 101.183 87.5973 65.3539 87.5973C29.5246 87.5973 0.479492 74.1911 0.479492 57.6535C0.479492 41.1158 29.5249 27.7096 65.3542 27.7096C101.183 27.7096 130.229 41.116 130.229 57.6535Z" fill="#E3E8E7"/>
<path d="M116.468 57.6535C116.468 70.6831 93.5834 81.2458 65.3542 81.2458C37.125 81.2458 14.2404 70.6831 14.2404 57.6535C14.2404 44.6238 37.1247 34.0612 65.354 34.0612C93.5832 34.0612 116.468 44.6238 116.468 57.6535Z" fill="#F9F9F7"/>
<path d="M108.01 22.4615C105.585 22.4613 101.288 20.7359 98.1495 19.4762C95.082 18.2447 93.4242 17.6021 92.2048 17.6021C92.1672 17.6021 92.1296 17.6026 92.0935 17.6039C92.0383 17.6055 91.9817 17.6064 91.9241 17.6064C89.8113 17.6064 85.9465 16.5653 82.8411 15.7288C79.6856 14.8787 77.8406 14.3977 76.6158 14.3977C76.5675 14.3977 76.5199 14.3985 76.4741 14.3999C76.382 14.4028 76.2901 14.4043 76.1977 14.4043C72.0398 14.4043 67.8777 11.4564 66.9203 7.83289C66.3868 5.81395 66.9118 3.91199 68.361 2.61453C69.4139 1.67182 70.8516 1.14579 72.5187 1.09293C72.6109 1.09002 72.7027 1.08857 72.7948 1.08857C76.0772 1.08857 79.5436 2.99144 81.2244 5.71605C81.3322 5.89092 81.5028 6.04264 81.7191 6.15602C81.9355 6.2694 82.1899 6.34048 82.4571 6.36214C82.7243 6.38381 82.9947 6.35529 83.2415 6.27946C83.4883 6.20363 83.7027 6.08313 83.8633 5.93002C84.9261 4.91646 86.4042 4.35174 88.1377 4.29689C88.2298 4.29398 88.3216 4.29253 88.4138 4.29253C92.2964 4.29253 96.1898 6.82351 97.4701 10.1797C97.5438 10.3723 97.6904 10.5468 97.8941 10.6843C98.0977 10.8219 98.3507 10.9171 98.6253 10.9596C98.8999 11.0022 99.1857 10.9905 99.4515 10.9257C99.7174 10.8609 99.9532 10.7456 100.133 10.5924C101.178 9.70142 102.582 9.20355 104.193 9.15251C104.285 9.1496 104.377 9.14815 104.469 9.14815C108.627 9.14815 112.789 12.096 113.747 15.7195C114.281 17.7383 113.755 19.6403 112.306 20.9379C111.254 21.8806 109.816 22.4068 108.149 22.4595C108.102 22.4608 108.056 22.4615 108.01 22.4615V22.4615Z" fill="#F2F2F0"/>
<path d="M115.257 15.5186C114.153 11.3405 109.369 8.05773 104.47 8.05773C104.354 8.05773 104.24 8.05955 104.125 8.06318C102.007 8.1302 100.224 8.81081 98.953 9.89466C97.5013 6.08947 93.0087 3.20248 88.4139 3.2023C88.299 3.2023 88.1844 3.20411 88.0693 3.20774C85.7996 3.27949 83.9139 4.05601 82.6312 5.27899C80.7284 2.19419 76.8007 -0.00129993 72.7945 -0.00166321C72.6796 -0.00166321 72.565 0.000153198 72.4501 0.00378601C67.4322 0.16254 64.2803 3.75793 65.4104 8.03412C65.4897 8.33437 65.5903 8.62935 65.7062 8.91943C65.2592 8.97447 64.8692 9.05694 64.5458 9.17028C57.5581 11.6206 32.6768 38.4157 31.8849 39.2698L31.8652 39.2739V71.1226C31.8652 71.8624 32.8602 72.3974 33.8632 72.1963C46.1943 69.7222 111.429 56.5452 111.429 54.6811V22.8932C114.484 21.6492 116.12 18.784 115.257 15.5186ZM111.103 20.2603C110.77 20.5581 110.392 20.7929 109.975 20.9717C103.794 17.1521 79.8542 9.66543 68.9249 8.90072C68.7104 8.48832 68.5449 8.06393 68.43 7.63196C67.9787 5.92382 68.3922 4.34209 69.5648 3.29221C70.3439 2.59471 71.3607 2.22125 72.5872 2.18257C72.6566 2.18039 72.7254 2.1793 72.7947 2.1793C75.4861 2.17948 78.374 3.81388 79.8176 6.15377C80.0332 6.50358 80.3745 6.80706 80.8072 7.03385C81.24 7.26063 81.749 7.40278 82.2834 7.44607C82.8178 7.48936 83.3589 7.43228 83.8524 7.28053C84.346 7.12878 84.7748 6.88768 85.0959 6.58136C85.6386 6.06404 86.6186 5.43666 88.2067 5.38652C88.276 5.38434 88.3451 5.38325 88.4142 5.38325C91.5743 5.38344 94.9012 7.61544 95.9881 10.4648C96.135 10.8502 96.4281 11.1997 96.8354 11.4749C97.2428 11.7502 97.7487 11.9409 98.2982 12.026C98.8477 12.1112 99.4195 12.0876 99.9514 11.9579C100.483 11.8282 100.955 11.5973 101.315 11.2904C102.087 10.6323 103.079 10.2796 104.263 10.2421C104.332 10.24 104.401 10.2389 104.47 10.2389C106.04 10.2389 107.701 10.7882 109.146 11.7855C110.723 12.8734 111.821 14.3421 112.238 15.9208C112.689 17.6287 112.275 19.2105 111.103 20.2603V20.2603Z" fill="#E2E0D7"/>
<path d="M105.311 54.4546L31.8652 70.1681V39.2738L105.311 23.5602V54.4546Z" fill="#FFD469"/>
<path d="M105.311 23.5602V54.4546L31.8652 70.1681V67.4208L102.115 52.3911V41.0649L31.8652 56.0946V53.3473L102.115 38.3176V26.9914L31.8652 42.0211V39.2738L105.311 23.5602V23.5602Z" fill="#FFBD03"/>
<path d="M63.4879 25.7434C57.9667 21.8238 64.4097 18.5493 67.6031 10.6761C70.7965 2.8029 83.7893 8.26556 88.5608 11.653C103.964 22.5881 69.0091 29.663 63.4879 25.7434V25.7434Z" fill="#FF473E"/>
<path d="M75.3534 9.18211L75.3094 9.23406C75.2802 9.26294 75.2383 9.3158 75.1838 9.3623C75.1324 9.41225 75.0525 9.47328 75.008 9.53922L74.8635 9.73067C74.8038 9.79933 74.744 9.86417 74.6813 9.92466C74.6168 9.99296 74.5498 10.05 74.4776 10.1058C74.4061 10.1632 74.3273 10.2159 74.2422 10.2632C74.1573 10.3137 74.0672 10.3517 73.971 10.3935C73.7697 10.4723 73.5523 10.5286 73.3268 10.5604C73.0932 10.5936 72.8427 10.6036 72.6017 10.5964C72.4814 10.5927 72.3627 10.5846 72.2534 10.5748C72.1447 10.5658 72.0372 10.5486 71.951 10.5379C71.8671 10.529 71.7865 10.5108 71.7374 10.5039L71.6547 10.4881C71.6547 10.4881 71.6481 10.4656 71.643 10.4278C71.6401 10.3922 71.6276 10.3315 71.6319 10.2703C71.6332 10.2064 71.6337 10.1263 71.6496 10.0456C71.6637 9.96317 71.6893 9.87743 71.7241 9.78716C71.8 9.59786 71.9249 9.42027 72.0925 9.26349C72.2736 9.0955 72.5021 8.95619 72.7634 8.85443C72.8933 8.80067 73.0425 8.76034 73.1873 8.72583C73.3332 8.69168 73.4941 8.67315 73.6448 8.66117C73.7992 8.65259 73.9544 8.65472 74.1082 8.66752C74.2549 8.68251 74.3995 8.70695 74.54 8.74054C74.6743 8.77185 74.8034 8.81339 74.9251 8.86442C75.0377 8.90565 75.0986 8.96941 75.162 9.01409C75.2224 9.05678 75.2708 9.10655 75.3033 9.13343L75.3534 9.18211V9.18211ZM71.1978 15.942L71.2658 15.9651C71.3075 15.9766 71.3743 16.0009 71.4488 16.0167C71.5268 16.0329 71.6117 16.0652 71.7325 16.0636C71.8661 16.0675 72 16.0623 72.1322 16.0479C72.2721 16.0326 72.41 16.0093 72.5446 15.9782C72.6851 15.9414 72.8214 15.897 72.9522 15.8452C73.0781 15.79 73.2106 15.7275 73.3227 15.6556C73.4337 15.5837 73.5471 15.5063 73.6369 15.4224C73.8205 15.2605 73.9614 15.0764 74.0526 14.8789C74.0992 14.785 74.1227 14.6875 74.1455 14.5957C74.1634 14.5022 74.1701 14.411 74.1685 14.3247C74.1656 14.2433 74.1546 14.1621 74.1358 14.0817C74.1197 14.0079 74.0908 13.9393 74.0687 13.8837C74.0501 13.8298 74.0178 13.7811 74.0027 13.7509L73.9718 13.7015C73.9537 13.6726 73.9227 13.6488 73.8836 13.6336C73.8446 13.6185 73.7996 13.6128 73.7556 13.6176L73.7256 13.6209C73.7256 13.6209 73.6988 13.6238 73.654 13.6319C73.6118 13.6412 73.5404 13.6505 73.4693 13.6692C73.2801 13.7099 73.0961 13.7621 72.9194 13.825C72.7188 13.8953 72.52 13.986 72.3368 14.0893C72.1583 14.1925 71.9979 14.3106 71.8592 14.441C71.7937 14.5078 71.7297 14.5688 71.676 14.6388C71.6206 14.7052 71.5722 14.7744 71.5309 14.8458C71.4882 14.9147 71.4526 14.9846 71.4206 15.0589C71.3881 15.1276 71.3597 15.1979 71.3346 15.2709L71.2837 15.4645C71.2732 15.5292 71.2274 15.598 71.2026 15.6511C71.1734 15.7023 71.1584 15.7546 71.1448 15.7849L71.1276 15.8371C71.1206 15.8576 71.1237 15.8793 71.1364 15.8984C71.1492 15.9175 71.1709 15.9329 71.1978 15.942V15.942ZM69.3901 19.2414L69.322 19.2185C69.2801 19.2072 69.2133 19.1831 69.1389 19.1674C69.0608 19.1515 68.9756 19.1195 68.8549 19.1215C68.7213 19.118 68.5875 19.1237 68.4555 19.1386C68.3265 19.1535 68.1853 19.176 68.0435 19.2098C67.9033 19.247 67.7673 19.2919 67.637 19.3442C67.5113 19.3998 67.3793 19.4628 67.2678 19.5351C67.1572 19.6074 67.0444 19.6851 66.9551 19.7694C66.7725 19.9318 66.6329 20.1165 66.5432 20.3143C66.4974 20.4084 66.4743 20.506 66.4523 20.5979C66.4359 20.6877 66.4288 20.7783 66.4311 20.8689C66.4362 20.9562 66.4464 21.0369 66.4656 21.1119C66.4823 21.1856 66.5117 21.2543 66.5342 21.3097C66.5531 21.3637 66.5859 21.4122 66.6012 21.4423L66.6325 21.4917C66.6507 21.5206 66.6819 21.5444 66.7211 21.5594C66.7603 21.5744 66.8054 21.5799 66.8494 21.5749L66.8794 21.5715C66.8794 21.5715 66.9062 21.5684 66.951 21.5602C66.993 21.5507 67.0643 21.5413 67.1355 21.5224C67.3244 21.4809 67.5079 21.4282 67.6843 21.3647C67.8846 21.2939 68.0827 21.2024 68.2651 21.0985C68.4429 20.9947 68.6025 20.8761 68.7402 20.7452C68.8052 20.6781 68.8689 20.6168 68.9219 20.5466C68.9759 20.4778 69.0255 20.4131 69.0654 20.339C69.1076 20.27 69.1427 20.1999 69.1742 20.1256C69.2064 20.0569 69.2343 19.9865 69.2589 19.9133L69.3085 19.7194C69.3185 19.6548 69.364 19.5858 69.3883 19.5327C69.4172 19.4813 69.4318 19.429 69.4454 19.3987L69.4623 19.3464C69.4688 19.3256 69.4652 19.304 69.452 19.2849C69.4389 19.2658 69.4171 19.2505 69.3901 19.2414V19.2414ZM82.1079 12.5859C82.1183 12.5626 82.1221 12.5381 82.1192 12.5137C82.1162 12.4894 82.1066 12.4657 82.0907 12.444C82.0749 12.4223 82.0531 12.403 82.0268 12.3873C82.0005 12.3716 81.97 12.3597 81.9372 12.3523L81.8732 12.3379C81.8333 12.3314 81.7709 12.3158 81.6992 12.3078C81.6261 12.2983 81.5419 12.2804 81.4229 12.2923C81.2934 12.3001 81.1649 12.3154 81.0389 12.3381C80.9161 12.3617 80.7774 12.3913 80.6448 12.4326C80.5182 12.4754 80.3785 12.5236 80.2542 12.5833C80.1303 12.6418 79.9998 12.7076 79.8906 12.7819C79.7785 12.8558 79.667 12.9343 79.5731 13.0185C79.383 13.1806 79.228 13.3619 79.1133 13.5564C79.0093 13.7283 78.9398 13.9097 78.9065 14.0953C78.8808 14.2368 78.8796 14.3799 78.903 14.5216C78.9076 14.5739 78.925 14.6208 78.9314 14.6499L78.947 14.698L78.9472 14.6987C78.9807 14.8004 79.1238 14.8635 79.267 14.8399L79.3118 14.8324C79.3118 14.8324 79.3346 14.8286 79.374 14.8186C79.4114 14.8077 79.473 14.7952 79.5372 14.7732C79.6734 14.733 79.8537 14.6715 80.039 14.5894C80.4483 14.4078 80.8117 14.1786 81.1141 13.9115C81.1893 13.8416 81.2635 13.776 81.3303 13.7055C81.3958 13.6329 81.4621 13.5704 81.5155 13.4959C81.5729 13.4258 81.6253 13.3608 81.6721 13.2896C81.7192 13.2218 81.7632 13.1591 81.8021 13.0921C81.8395 13.0271 81.861 12.9797 81.8899 12.9203C81.9093 12.8645 81.9597 12.8051 81.9958 12.7597C82.0331 12.7154 82.0562 12.6712 82.0748 12.6453L82.1004 12.601C82.103 12.596 82.1058 12.5906 82.1079 12.5859V12.5859ZM84.1552 19.7799C84.2036 19.7881 84.2839 19.8085 84.3681 19.8181C84.4564 19.8279 84.5582 19.8544 84.6836 19.8411C84.8244 19.832 84.9633 19.8121 85.0981 19.7817C85.2397 19.7507 85.3771 19.7106 85.5085 19.6619C85.6438 19.6084 85.7715 19.5458 85.8897 19.4748C86.0023 19.4025 86.1174 19.3207 86.2077 19.2325C86.2968 19.1444 86.3848 19.0497 86.4459 18.9522C86.5741 18.7613 86.6448 18.5535 86.6534 18.3421C86.6603 18.1453 86.6154 17.9494 86.5212 17.7643C86.4786 17.6815 86.4276 17.6011 86.3687 17.5236C86.3152 17.4517 86.2497 17.3865 86.198 17.334C86.1512 17.2824 86.0911 17.2384 86.0593 17.2108C86.0243 17.1823 86.0002 17.1667 86.0002 17.1667L85.9202 17.1881C85.8744 17.203 85.7943 17.2215 85.7188 17.2493C85.64 17.2762 85.5387 17.3071 85.443 17.3449C85.3463 17.3823 85.2432 17.425 85.1429 17.4718C84.9389 17.5658 84.7513 17.6766 84.5841 17.8019C84.4273 17.9213 84.2974 18.0572 84.199 18.2047C84.1552 18.2787 84.1135 18.3468 84.0862 18.4229C84.056 18.4965 84.0354 18.572 84.0248 18.6483C84.0108 18.7251 84.0055 18.8025 84.0086 18.8799C84.0076 18.9549 84.0122 19.0325 84.0207 19.1129L84.0611 19.3284C84.0792 19.4001 84.0647 19.483 84.0642 19.5447C84.058 19.6052 84.0677 19.6655 84.0677 19.7009L84.0746 19.7612L84.1552 19.7799V19.7799ZM76.6959 18.4307C76.6522 18.4136 76.5826 18.3789 76.505 18.3537C76.4237 18.3275 76.3354 18.2829 76.2095 18.272C76.0704 18.2542 75.9289 18.2472 75.7876 18.2511C75.6394 18.2543 75.492 18.267 75.347 18.2892C75.1965 18.3152 75.05 18.3516 74.9095 18.3978C74.7739 18.4463 74.6324 18.5034 74.5122 18.5715C74.3934 18.6396 74.2729 18.7142 74.1777 18.7967C73.9827 18.9566 73.8368 19.1436 73.7494 19.3458C73.6692 19.5342 73.6391 19.7316 73.6607 19.9278C73.6724 20.0212 73.6903 20.1076 73.7177 20.1886C73.7423 20.268 73.7812 20.3432 73.8111 20.4035C73.8369 20.462 73.8787 20.5158 73.8986 20.5485C73.9219 20.5826 73.939 20.602 73.939 20.602L74.0242 20.5964C74.0739 20.5908 74.1583 20.5879 74.2412 20.5755C74.3272 20.5644 74.4364 20.5539 74.5429 20.5354C74.6501 20.5176 74.7655 20.496 74.8798 20.4696C75.1096 20.4169 75.3393 20.3457 75.542 20.2567C75.7379 20.1712 75.914 20.0647 76.0642 19.941C76.134 19.878 76.1998 19.8203 76.2546 19.752C76.3101 19.6849 76.3589 19.6212 76.3981 19.5462C76.4385 19.476 76.4736 19.4059 76.5004 19.326C76.5293 19.2537 76.5539 19.1783 76.5762 19.0991L76.6179 18.8839C76.6273 18.8112 76.6724 18.7342 76.6959 18.6746C76.7243 18.6174 76.7379 18.5575 76.7509 18.5233L76.7668 18.4638L76.6959 18.4307V18.4307Z" fill="#E21A1A"/>
<path d="M90.52 8.26937C94.5219 7.31212 96.5004 8.87024 92.0132 11.3551C89.5109 12.7408 87.0646 13.1595 85.6236 12.9339C85.5019 12.9143 85.3751 12.9172 85.2554 12.9423C84.3302 13.1426 83.5713 12.8149 83.3818 11.8893C83.3303 11.6383 83.0514 11.4506 82.703 11.3954C81.854 11.2608 80.9572 10.4456 80.3608 8.72056C78.5923 3.60611 82.5021 1.12435 84.5193 6.03919L84.529 6.06316C84.7176 6.52707 85.5435 6.64932 85.9856 6.2824C87.8196 4.75989 89.7647 5.08412 89.4078 7.65161C89.3479 8.08355 89.9404 8.40796 90.52 8.26937V8.26937Z" fill="#16992B"/>
</g>
<defs>
<clipPath id="clip0">
<rect width="131" height="93" fill="white"/>
</clipPath>
</defs>
</svg>
