<svg width="95" height="89" viewBox="0 0 95 89" fill="none" xmlns="http://www.w3.org/2000/svg">
<path d="M86.732 50.2433L64.8894 36.9002L39.0094 54.2483L39.9594 64.3651L50.2906 73.7101C50.2906 73.7101 51.8344 79.8288 49.1031 81.4976C46.3719 83.1663 42.4531 84.5013 33.673 84.0563C24.8855 83.6113 22.043 80.8301 21.2117 79.9401C20.3805 79.0501 19.0742 75.8238 19.0742 75.8238C19.0742 75.8238 12.0976 74.3289 8.39413 69.3713C5.06913 64.9213 5.66288 61.0276 6.25663 59.032C6.85038 57.0295 8.39413 55.8058 8.39413 55.8058L7.91913 54.6933C7.91913 54.6933 3.52537 52.6908 2.93162 47.907C2.33787 43.1233 4.59412 36.1215 8.51288 30.8927C12.4316 25.664 13.6191 26.2202 13.6191 26.2202C13.6191 26.2202 11.9566 25.3302 12.4316 21.4365C12.9066 17.5427 18.8441 12.9815 24.5367 9.65094C30.2293 6.32039 34.4152 4.51258 38.5715 5.18008C42.7277 5.84758 44.1898 7.94742 44.1898 7.94742C44.1898 7.94742 50.4168 4.08844 58.0094 5.53469C65.6019 6.98094 69.1644 11.8759 69.7582 12.8772C70.3519 13.8784 71.3019 13.6559 71.3019 13.6559C71.3019 13.6559 74.2707 12.8772 79.1394 15.2134C84.0082 17.5497 85.6707 22.2222 86.0269 23.5572C86.3832 24.8922 86.8582 27.3397 86.8582 27.3397C86.8582 27.3397 88.9883 28.7025 90.4504 31.7897C92.3504 35.7947 92.6769 40.3559 91.6082 45.0284C90.5617 49.6175 89.5894 51.0359 89.5894 51.0359L86.732 50.2433V50.2433Z" fill="#F6AF3D"/>
<path d="M19.7719 18.0851C21.3231 20.025 23.8168 18.4605 26.7262 16.2703C29.6356 14.0801 31.4168 12.4808 29.9621 10.972C28.5074 9.46319 24.7891 11.7299 22.8446 13.0927C20.9074 14.4486 18.3172 16.2633 19.7719 18.0851V18.0851Z" fill="#F9E0CA"/>
<path d="M13.3891 58.2463C11.9047 58.2463 11.259 59.8942 11.259 61.3683C11.259 62.8423 11.259 64.3164 12.9215 64.3998C14.2203 64.4694 15.0515 63.6211 15.1406 61.2779C15.2371 59.1085 14.6879 58.2463 13.3891 58.2463Z" fill="#F9E0CA"/>
<path d="M46.2383 70.0458L44.8133 70.5812L37.2059 69.3574L29.3758 70.3239L24.1731 72.389C22.3621 76.241 26.652 83.6948 33.6656 84.0494C42.4531 84.4944 46.3645 83.1594 49.0957 81.4906C51.827 79.8219 50.2832 73.7031 50.2832 73.7031L46.2383 70.0458V70.0458Z" fill="url(#paint0_radial)"/>
<path d="M41.5254 59.9707L46.1789 47.9487L35.4617 33.2846L25.5906 28.0002C25.5906 28.0002 20.3433 30.9762 17.9758 36.8516C15.1555 43.8534 17.8348 51.912 17.8348 51.912L30.8305 53.4973L41.5254 59.9707Z" fill="url(#paint1_radial)"/>
<path d="M42.0894 40.5506L33.3465 31.0387L19.6086 24.7531C19.6086 24.7531 34.8308 22.3543 41.8816 18.9194C48.9324 15.4846 48.8285 9.60921 48.8285 9.60921L56.614 17.8209L61.4086 28.7859L62.6777 39.2226L46.6019 43.9785L43.0765 43.318L42.0894 40.5506V40.5506Z" fill="url(#paint2_radial)"/>
<path d="M50.4984 11.4031C50.4984 11.4031 54.8031 9.8039 60.6738 10.8399C67.6429 12.0706 73.1277 15.5541 73.1277 15.5541L76.1336 25.7474L75.2281 34.9951L72.1258 39.751L62.6777 36.8516L61.1265 26.2828L56.473 18.7526L50.4984 11.4031Z" fill="url(#paint3_radial)"/>
<path d="M18.4137 62.2235C19.8535 70.6577 25.3086 71.9927 25.3086 71.9927L34.4746 69.4826L41.2434 70.2752L37.577 55.7432L25.3086 52.0441C25.3086 52.0441 16.7215 52.3153 18.4137 62.2235V62.2235Z" fill="url(#paint4_radial)"/>
<path d="M17.6715 30.7328C14.1312 28.9111 10.6875 34.3484 9.50742 36.337C8.29766 38.3813 7.67422 44.048 9.58906 44.5904C11.452 45.1188 12.4094 41.2251 14.1164 39.1391C16.7809 35.8781 21.798 32.8535 17.6715 30.7328V30.7328Z" fill="#F9E0CA"/>
<path d="M72.0664 41.2807L78.8426 45.4178L83.177 41.3433L86.309 33.0482L86.8582 27.3258C86.8582 27.3258 86.3832 24.8783 86.027 23.5433C85.6707 22.2083 83.9785 17.5844 79.1394 15.1995C75.191 13.2526 72.2074 13.4473 71.25 13.5655L76.141 25.7405L74.2855 35.7738L72.0664 41.2807Z" fill="url(#paint5_radial)"/>
<path d="M90.443 31.7827C89.2184 29.1753 87.4297 27.7291 86.8582 27.3466L86.309 33.0621L83.5555 42.2611L79.0133 45.5291L86.7395 50.2502L89.5895 51.029C89.5895 51.029 90.5543 49.6106 91.6082 45.0215C92.6695 40.342 92.3281 35.7877 90.443 31.7827V31.7827Z" fill="url(#paint6_radial)"/>
<path d="M40.4492 39.3269C40.4492 39.3269 46.2531 42.3862 53.816 36.3162C59.4047 31.8244 60.3918 27.2701 60.3918 27.2701C60.3918 27.2701 62.8484 31.9635 67.6578 33.6184C72.4672 35.2732 75.5176 33.6184 75.5176 33.6184C75.5176 33.6184 75.6141 37.2062 78.2711 39.4173C80.9207 41.6284 83.1844 41.3502 83.1844 41.3502C83.1844 41.3502 82.3012 45.7655 85.5445 47.5176C88.7879 49.2629 90.5543 48.7136 90.5543 48.7136C90.5543 48.7136 89.1813 55.4581 84.4684 55.5207C77.3953 55.6111 76.809 46.9614 76.809 46.9614C76.809 46.9614 74.8422 46.6833 73.4691 46.134C72.0961 45.5847 70.7156 44.7503 70.7156 44.7503C70.7156 44.7503 68.6523 45.5777 66.9824 45.7655C65.3125 45.9462 63.0563 45.3969 63.0563 45.3969C63.0563 45.3969 61.9727 49.0751 57.5566 52.3918C53.1406 55.7084 47.834 56.6262 47.834 56.6262C47.834 56.6262 48.3238 58.3715 47.4406 60.4922C46.6688 62.3348 44.4941 64.2677 44.4941 64.2677C44.4941 64.2677 45.6742 65.0048 46.2606 66.4788C46.8469 67.9529 46.8469 69.6077 46.8469 69.6077C46.8469 69.6077 51.8938 70.5881 52.9328 74.5792C54.1129 79.0848 48.7098 81.8452 48.7098 81.8452C48.7098 81.8452 50.9363 77.4578 48.5168 74.1134C44.984 69.2392 35.8477 69.1419 35.8477 69.1419C35.8477 69.1419 36.5379 65.4637 35.7512 61.9662C34.9645 58.4688 30.8379 53.5043 30.8379 53.5043C30.8379 53.5043 34.4746 52.3987 37.2207 48.2616C39.9668 44.1245 40.4492 39.3269 40.4492 39.3269V39.3269Z" fill="#CF7118"/>
<path d="M44.4496 63.9896C43.7371 65.6027 38.5492 54.4291 25.0488 54.3456C11.5484 54.2622 6.90234 57.5649 6.90234 57.5649C6.90234 57.5649 7.31797 56.4038 7.34023 55.771C7.3625 55.1383 7.28086 54.3456 7.28086 54.3456C7.28086 54.3456 11.2145 50.3684 20.3582 50.1668C29.0492 49.9721 35.5137 51.6687 39.952 55.917C44.3977 60.1584 44.8727 63.037 44.4496 63.9896Z" fill="url(#paint7_radial)"/>
<path d="M44.8133 70.5881C44.7168 72.1178 38.8016 69.865 30.6375 71.8744C22.4734 73.8839 19.7273 77.7498 19.7273 77.7498C19.7273 77.7498 19.2301 76.8876 18.7476 76.3244C18.2652 75.7612 17.2336 75.0937 17.2336 75.0937C17.2336 75.0937 21.1894 70.1014 29.7766 68.6551C38.3637 67.2089 44.9023 69.2184 44.8133 70.5881V70.5881Z" fill="url(#paint8_radial)"/>
<path d="M12.3723 23.6476C12.3723 23.6476 12.5133 24.6349 12.3426 25.5945C12.1719 26.5609 11.8082 27.1589 11.8082 27.1589C11.8082 27.1589 22.043 27.4301 28.834 31.8592C35.625 36.2884 41.1172 42.4906 43.7 47.323C46.2828 52.1554 46.1047 55.6945 47.3071 55.2148C48.5094 54.735 48.168 48.7762 44.9024 43.1372C41.6367 37.4982 35.9664 30.0166 27.5426 26.7139C19.1188 23.4112 12.3723 23.6476 12.3723 23.6476V23.6476Z" fill="url(#paint9_radial)"/>
<path d="M44.3531 7.8918C44.1379 8.43414 52.4059 14.0245 56.3098 21.1445C60.2137 28.2714 61.0226 35.3984 61.4902 38.9305C61.9578 42.4627 61.6906 44.9867 62.7668 44.7295C63.843 44.4791 64.0805 42.0803 64.3848 37.0393C64.7187 31.3655 62.3363 24.1969 59.3379 19.1906C56.2726 14.0801 51.0105 9.72047 47.5594 8.26031C46.0453 7.62063 44.6129 7.2243 44.3531 7.8918V7.8918Z" fill="url(#paint10_radial)"/>
<path d="M70.1293 13.3778C69.8621 13.6698 74.6641 18.8082 74.4117 27.6387C74.1816 35.9129 70.2406 43.1511 70.9086 43.4014C71.584 43.6517 72.9273 42.2055 74.8125 38.4855C76.6977 34.7656 78.3824 28.9598 77.3063 23.3486C76.5047 19.1628 74.3004 15.3873 72.4375 14.1148C71.8066 13.6837 70.4633 13.0093 70.1293 13.3778Z" fill="url(#paint11_radial)"/>
<path d="M77.9148 46.3078C78.4566 47.1561 83.3328 45.244 85.6855 40.3838C88.0383 35.5305 88.0457 28.626 86.7172 28.7164C86.0269 28.7651 85.9898 34.0077 82.8281 39.9944C80.75 43.9299 77.707 45.9949 77.9148 46.3078Z" fill="url(#paint12_radial)"/>
<defs>
<radialGradient id="paint0_radial" cx="0" cy="0" r="1" gradientUnits="userSpaceOnUse" gradientTransform="translate(48.9592 67.8562) scale(28.9349 27.1074)">
<stop offset="0.34" stop-color="#E07F16"/>
<stop offset="0.821" stop-color="#E07F16" stop-opacity="0"/>
</radialGradient>
<radialGradient id="paint1_radial" cx="0" cy="0" r="1" gradientUnits="userSpaceOnUse" gradientTransform="translate(40.1701 45.1487) scale(23.157 21.6944)">
<stop offset="0.254" stop-color="#E07F16"/>
<stop offset="1" stop-color="#E07F16" stop-opacity="0"/>
</radialGradient>
<radialGradient id="paint2_radial" cx="0" cy="0" r="1" gradientUnits="userSpaceOnUse" gradientTransform="translate(37.2828 15.4067) rotate(52.6773) scale(26.9764 62.6258)">
<stop offset="0.243" stop-color="#E07F16" stop-opacity="0"/>
<stop offset="0.924" stop-color="#E07F16"/>
</radialGradient>
<radialGradient id="paint3_radial" cx="0" cy="0" r="1" gradientUnits="userSpaceOnUse" gradientTransform="translate(63.2519 4.14027) rotate(72.663) scale(37.3793 51.6824)">
<stop offset="0.31" stop-color="#E07F16" stop-opacity="0"/>
<stop offset="0.6" stop-color="#E07F16"/>
</radialGradient>
<radialGradient id="paint4_radial" cx="0" cy="0" r="1" gradientUnits="userSpaceOnUse" gradientTransform="translate(50.5311 60.3684) scale(32.2837 30.2447)">
<stop offset="0.454" stop-color="#E07F16"/>
<stop offset="0.913" stop-color="#E07F16" stop-opacity="0"/>
</radialGradient>
<radialGradient id="paint5_radial" cx="0" cy="0" r="1" gradientUnits="userSpaceOnUse" gradientTransform="translate(70.6577 40.114) scale(28.5252 26.7236)">
<stop offset="0.585" stop-color="#E07F16"/>
<stop offset="1" stop-color="#E07F16" stop-opacity="0"/>
</radialGradient>
<radialGradient id="paint6_radial" cx="0" cy="0" r="1" gradientUnits="userSpaceOnUse" gradientTransform="translate(84.2264 47.7012) scale(26.2289 24.5723)">
<stop offset="0.098" stop-color="#E07F16"/>
<stop offset="0.759" stop-color="#E07F16" stop-opacity="0.125"/>
<stop offset="0.854" stop-color="#E07F16" stop-opacity="0"/>
</radialGradient>
<radialGradient id="paint7_radial" cx="0" cy="0" r="1" gradientUnits="userSpaceOnUse" gradientTransform="translate(5.80836 56.0255) scale(22.6545 21.2237)">
<stop offset="0.353" stop-color="#F8C975"/>
<stop offset="0.508" stop-color="#F9C368"/>
<stop offset="0.794" stop-color="#FCB445"/>
<stop offset="1" stop-color="#FFA828"/>
</radialGradient>
<radialGradient id="paint8_radial" cx="0" cy="0" r="1" gradientUnits="userSpaceOnUse" gradientTransform="translate(15.9511 77.3883) scale(19.8157 18.5642)">
<stop offset="0.353" stop-color="#F8C975"/>
<stop offset="0.508" stop-color="#F9C368"/>
<stop offset="0.794" stop-color="#FCB445"/>
<stop offset="1" stop-color="#FFA828"/>
</radialGradient>
<radialGradient id="paint9_radial" cx="0" cy="0" r="1" gradientUnits="userSpaceOnUse" gradientTransform="translate(9.21428 25.0007) scale(33.0882 30.9984)">
<stop offset="0.221" stop-color="#F8C975"/>
<stop offset="0.535" stop-color="#FBBA53"/>
<stop offset="0.881" stop-color="#FFA828"/>
</radialGradient>
<radialGradient id="paint10_radial" cx="0" cy="0" r="1" gradientUnits="userSpaceOnUse" gradientTransform="translate(45.6186 6.81337) scale(26.9807 25.2767)">
<stop offset="0.353" stop-color="#F8C975"/>
<stop offset="0.508" stop-color="#F9C368"/>
<stop offset="0.794" stop-color="#FCB445"/>
<stop offset="1" stop-color="#FFA828"/>
</radialGradient>
<radialGradient id="paint11_radial" cx="0" cy="0" r="1" gradientUnits="userSpaceOnUse" gradientTransform="translate(69.8139 11.942) scale(20.2358 18.9577)">
<stop offset="0.353" stop-color="#F8C975"/>
<stop offset="0.508" stop-color="#F9C368"/>
<stop offset="0.794" stop-color="#FCB445"/>
<stop offset="1" stop-color="#FFA828"/>
</radialGradient>
<radialGradient id="paint12_radial" cx="0" cy="0" r="1" gradientUnits="userSpaceOnUse" gradientTransform="translate(86.8315 23.8777) scale(14.5112 13.5947)">
<stop offset="0.353" stop-color="#F8C975"/>
<stop offset="0.508" stop-color="#F9C368"/>
<stop offset="0.794" stop-color="#FCB445"/>
<stop offset="1" stop-color="#FFA828"/>
</radialGradient>
</defs>
</svg>
