<svg width="105" height="85" viewBox="0 0 105 85" fill="none" xmlns="http://www.w3.org/2000/svg">
<g clip-path="url(#clip0)">
<path d="M14.5834 51.6493C14.5834 51.6493 19.218 65.1714 20.4167 71.6762C21.77 79.0217 30.8321 84.83 52.5 84.83C74.168 84.83 83.23 79.0193 84.5834 71.6762C85.7821 65.1714 90.4167 51.6493 90.4167 51.6493H14.5834Z" fill="#BBDDF5"/>
<path d="M14.8575 51.8712C15.5866 54.7494 16.8817 56.5793 18.7775 55.6349C20.6733 54.6904 23.59 55.1792 22.6975 57.1106C21.8779 58.8814 25.5237 59.6936 27.0725 58.6594C28.5571 57.6701 31.6079 56.5793 31.9025 58.8058C32.1766 60.8718 35.3092 61.4267 36.7325 59.9132C38.1908 58.3643 42.2012 58.9829 42.9304 60.8718C43.6596 62.7607 47.5796 62.4962 48.6733 61.1669C49.7087 59.9085 50.7529 59.0774 52.5 59.0774V59.0278C54.25 59.0278 55.2912 59.9085 56.3267 61.1669C57.4204 62.4939 61.3404 62.7607 62.0696 60.8718C62.7987 58.9829 66.8092 58.3643 68.2675 59.9132C69.6937 61.4267 72.8233 60.8718 73.0975 58.8058C73.3921 56.5793 76.4429 57.6678 77.9275 58.6594C79.4762 59.6936 83.1221 58.8814 82.3025 57.1106C81.4071 55.1792 84.3267 54.6904 86.2225 55.6349C88.1183 56.5793 89.4133 54.7494 90.1425 51.8712H14.8575V51.8712Z" fill="#662113"/>
<path d="M96.25 44.7879C96.25 33.1736 76.6179 23.7599 52.4037 23.7599C28.1867 23.7599 8.5575 33.1736 8.5575 44.7879C8.5575 54.1592 34.8075 59.0278 52.4037 59.0278C70 59.0278 96.25 54.3056 96.25 44.7879Z" fill="#C1694F"/>
<path d="M52.5001 83.8194C52.1133 83.8194 51.7424 83.6951 51.4689 83.4737C51.1954 83.2523 51.0418 82.952 51.0418 82.6389V62.2247C51.0418 61.9116 51.1954 61.6113 51.4689 61.3899C51.7424 61.1685 52.1133 61.0442 52.5001 61.0442C52.8869 61.0442 53.2578 61.1685 53.5313 61.3899C53.8048 61.6113 53.9584 61.9116 53.9584 62.2247V82.6389C53.9584 82.952 53.8048 83.2523 53.5313 83.4737C53.2578 83.6951 52.8869 83.8194 52.5001 83.8194ZM32.9614 80.8256C32.607 80.8251 32.265 80.7205 31.9988 80.5311C31.7327 80.3417 31.5607 80.0805 31.5147 79.7961L28.5076 60.9497C28.4588 60.639 28.5639 60.3252 28.8 60.077C29.0361 59.8288 29.384 59.6663 29.7676 59.6251C29.9578 59.6043 30.1511 59.6142 30.3365 59.6543C30.5219 59.6945 30.6956 59.764 30.8476 59.8589C30.9995 59.9537 31.1266 60.0721 31.2216 60.2071C31.3166 60.3421 31.3776 60.491 31.4009 60.6451L34.408 79.4915C34.434 79.658 34.4161 79.8271 34.3554 79.9875C34.2946 80.148 34.1925 80.2961 34.0558 80.4222C33.919 80.5484 33.7507 80.6495 33.5621 80.719C33.3734 80.7886 33.1686 80.8249 32.9614 80.8256V80.8256ZM42.2334 83.13C41.8675 83.1298 41.5151 83.0183 41.246 82.8175C40.9769 82.6168 40.8109 82.3415 40.7809 82.0463L38.7159 61.9272C38.7002 61.7727 38.7223 61.6171 38.7809 61.4694C38.8394 61.3218 38.9333 61.1849 39.0572 61.0666C39.1811 60.9483 39.3326 60.8509 39.503 60.78C39.6734 60.7091 39.8594 60.6661 40.0503 60.6534C40.2413 60.6407 40.4334 60.6585 40.6158 60.706C40.7982 60.7534 40.9673 60.8294 41.1134 60.9297C41.2596 61.03 41.3798 61.1526 41.4674 61.2906C41.555 61.4285 41.6082 61.579 41.6239 61.7336L43.6889 81.8526C43.7203 82.1644 43.5976 82.4736 43.3477 82.7122C43.0978 82.9509 42.7411 83.0994 42.3559 83.1253L42.2334 83.13ZM24.853 75.9499C24.6007 75.9495 24.3563 75.8786 24.1612 75.7491C23.9662 75.6195 23.8324 75.4394 23.7826 75.2392L19.4076 57.6772C19.3791 57.5634 19.3786 57.4462 19.4062 57.3322C19.4337 57.2183 19.4887 57.1098 19.5681 57.0131C19.6475 56.9164 19.7497 56.8333 19.8688 56.7686C19.9879 56.7039 20.1216 56.6588 20.2622 56.636C20.8397 56.5226 21.4289 56.8485 21.5514 57.3278L25.9264 74.8897C25.9589 75.0184 25.9556 75.1513 25.9166 75.2787C25.8777 75.4062 25.8042 75.525 25.7014 75.6266C25.5985 75.7281 25.469 75.8098 25.3223 75.8658C25.1755 75.9217 25.0152 75.9504 24.853 75.9499V75.9499ZM71.8114 80.5587C71.6021 80.5591 71.3952 80.523 71.2047 80.4529C71.0142 80.3828 70.8445 80.2803 70.7073 80.1524C70.57 80.0245 70.4684 79.8742 70.4093 79.7117C70.3502 79.5492 70.335 79.3783 70.3647 79.2106L73.6605 60.631C73.7204 60.3229 73.9264 60.0459 74.2347 59.8589C74.543 59.672 74.9293 59.5898 75.3114 59.6299C75.501 59.6519 75.6834 59.7039 75.8481 59.7829C76.0129 59.862 76.1568 59.9666 76.2717 60.0907C76.3865 60.2148 76.47 60.356 76.5174 60.5062C76.5649 60.6564 76.5752 60.8128 76.548 60.9662L73.2522 79.5458C73.2024 79.8266 73.0294 80.0835 72.7648 80.2696C72.5003 80.4556 72.1618 80.5582 71.8114 80.5587ZM62.9389 83.13L62.8164 83.1253C62.4312 83.0994 62.0745 82.9509 61.8246 82.7122C61.5747 82.4736 61.452 82.1644 61.4834 81.8526L63.5484 61.7336C63.6126 61.0819 64.4001 60.6144 65.1205 60.6546C65.5057 60.6804 65.8624 60.829 66.1123 61.0676C66.3622 61.3063 66.4849 61.6154 66.4534 61.9272L64.3884 82.0463C64.3591 82.3413 64.1937 82.6165 63.9252 82.8173C63.6566 83.0181 63.3045 83.1298 62.9389 83.13V83.13ZM80.3893 76.0467C80.2283 76.0469 80.0692 76.0184 79.9234 75.963C79.7777 75.9076 79.6489 75.8268 79.5463 75.7264C79.4437 75.6259 79.3698 75.5084 79.33 75.3821C79.2902 75.2558 79.2854 75.1239 79.3159 74.996L83.5101 57.3372C83.5369 57.2231 83.5912 57.1144 83.6699 57.0173C83.7487 56.9202 83.8502 56.8366 83.9688 56.7712C84.0875 56.7059 84.2208 56.6601 84.3613 56.6365C84.5018 56.6129 84.6467 56.6119 84.7876 56.6336C84.9286 56.6553 85.0629 56.6993 85.1828 56.763C85.3028 56.8267 85.4061 56.9089 85.4868 57.005C85.5675 57.101 85.624 57.209 85.6532 57.3227C85.6824 57.4364 85.6836 57.5537 85.6568 57.6678L81.4626 75.3265C81.4156 75.5291 81.2826 75.712 81.0866 75.8435C80.8906 75.975 80.6439 76.0469 80.3893 76.0467V76.0467Z" fill="#88C9F9"/>
<path d="M49.3266 -0.0259705C49.3266 -0.0259705 52.497 2.67514 55.6704 2.72945C62.2854 2.84514 68.3725 5.83431 68.3725 11.0075C68.3725 11.0075 83.717 11.0075 84.2479 22.0433C84.2479 22.0433 91.9916 22.1496 93.765 33.0744C95.0891 41.2344 84.9041 52.4993 52.5 52.3836C23.9312 52.2821 9.31579 44.0631 11.235 33.0792C13.0841 22.5014 23.9341 22.0457 23.9341 22.0457C23.9341 22.0457 22.0791 8.24972 42.977 8.25208C42.977 8.25208 45.0945 2.73417 49.3266 -0.0259705V-0.0259705Z" fill="#FFE8B6"/>
<path d="M52.2376 24.8011C60.8009 22.185 68.638 17.4463 68.3755 11.0099C68.3755 8.98403 67.4217 7.30764 65.8905 5.9925C67.7659 12.6225 55.2417 20.1592 41.3934 21.3539C24.0655 22.8485 26.0488 14.5728 26.0488 14.5728L26.0284 14.5893C23.453 18.216 23.9372 22.0481 23.9372 22.0481C26.5767 27.6746 40.2005 28.4797 52.2376 24.8011V24.8011Z" fill="#FFCC4D"/>
<path d="M84.2479 22.0457C84.2304 21.7081 84.1604 21.4129 84.1167 21.0965C83.7784 19.4981 82.7954 17.5407 81.8592 16.0485C81.305 15.4228 80.6925 14.8703 80.0217 14.391C83.2563 24.8413 63.7963 37.4094 45.2259 40.3207C21.0204 44.1126 11.235 33.0839 11.235 33.0839C10.2375 38.786 13.7375 43.7301 21.2946 47.1939C51.1234 57.0374 84.5075 32.8029 84.2479 22.0457V22.0457Z" fill="#FFCC4D"/>
<path d="M25.3429 33.5301L21.8984 37.341C21.4399 37.8449 20.7536 38.1814 19.9896 38.277C19.2255 38.3725 18.4458 38.2194 17.8209 37.851C17.1984 37.4798 16.7827 36.9243 16.6646 36.3058C16.5466 35.6873 16.7358 35.0561 17.1909 34.5501L20.6354 30.7393C21.0939 30.2354 21.7802 29.8989 22.5442 29.8033C23.3083 29.7077 24.088 29.8609 24.7129 30.2293C26.0079 30.9967 26.2909 32.4818 25.3429 33.5301V33.5301Z" fill="#DD2E44"/>
<path d="M43.5605 19.3304L37.8555 18.3411C37.1003 18.2086 36.4406 17.8394 36.0208 17.3141C35.601 16.7889 35.4553 16.1505 35.6155 15.5385C35.9509 14.2682 37.5113 13.4513 39.0776 13.7251L44.7826 14.7145C46.3518 14.986 47.3609 16.2492 47.0226 17.5171C46.8596 18.1288 46.4036 18.6632 45.7546 19.0031C45.1056 19.3431 44.3166 19.4608 43.5605 19.3304V19.3304Z" fill="#55ACEE"/>
<path d="M71.0851 27.1504L65.628 28.8197C64.9042 29.0392 64.1025 29.0178 63.3981 28.7604C62.6937 28.5029 62.1437 28.0302 61.8684 27.4456C61.5973 26.8596 61.6237 26.2107 61.9417 25.6404C62.2598 25.0702 62.8437 24.625 63.5659 24.4021L69.023 22.7328C69.7468 22.5133 70.5485 22.5347 71.2529 22.7921C71.9573 23.0496 72.5073 23.5223 72.7826 24.1069C73.0537 24.6929 73.0273 25.3419 72.7092 25.9121C72.3912 26.4824 71.8073 26.9275 71.0851 27.1504Z" fill="#F4900C"/>
<path d="M88.5675 33.176L85.6508 37.2654C84.8488 38.3893 83.055 38.7789 81.6667 38.1296C80.9986 37.8151 80.5113 37.2995 80.3113 36.6952C80.1113 36.0909 80.2148 35.447 80.5992 34.9043L83.5158 30.8149C84.3179 29.691 86.1117 29.3014 87.5 29.9507C88.8883 30.6 89.3696 32.0497 88.5675 33.176V33.176Z" fill="#AA8DD8"/>
</g>
<defs>
<clipPath id="clip0">
<rect width="105" height="85" fill="white"/>
</clipPath>
</defs>
</svg>
