<svg width="85" height="77" viewBox="0 0 85 77" fill="none" xmlns="http://www.w3.org/2000/svg">
<path d="M58.2383 66.4426C58.2383 66.4426 39.0801 68.915 38.6152 69.4805C38.2168 69.9557 37.8715 70.3587 39.8902 71.9589C41.7762 73.4508 49.2203 78.0347 64.9121 73.7335C73.9832 71.2491 78.3328 63.4167 76.8785 61.1849C75.4242 58.9531 73.1066 59.7412 73.1066 59.7412L58.2383 66.4426Z" fill="#D17020"/>
<path d="M42.8586 67.6878C42.8586 67.6878 38.0242 67.6758 38.5355 69.5767C38.7215 70.2806 43.7949 71.5739 47.2015 71.7664C50.6812 71.9649 56.5051 72.001 64.1949 69.2398C70.6629 66.9178 73.3789 64.9266 75.2781 62.2016C76.1945 60.8841 75.3512 59.2359 75.3512 59.2359L42.8586 67.6878V67.6878Z" fill="#AC5811"/>
<path d="M5.81054 41.8206C5.81054 41.8206 4.78789 42.5485 3.83828 45.3337C3.12773 47.4091 1.86601 50.5673 3.63242 54.1166C4.8875 56.6371 11.4617 69.0233 40.5211 70.076C71.1277 71.1829 79.382 56.5589 80.3715 53.0939C81.8523 47.8784 79.6742 45.1954 78.718 44.5637C77.7484 43.9261 5.81054 41.8206 5.81054 41.8206V41.8206Z" fill="#FCE9C5"/>
<path d="M9.73518 40.052C9.56252 40.2866 4.85432 42.9756 4.85432 42.9756C4.85432 42.9756 2.41057 47.7941 6.77346 53.0097C11.1363 58.2252 20.5461 64.3852 40.6938 65.5703C60.8348 66.7554 76.3606 59.0133 78.8907 51.5118C81.4207 44.0103 76.3406 42.5245 76.3406 42.5245L9.73518 40.052V40.052Z" fill="#FFA828"/>
<path d="M51.7637 56.2461C51.6773 57.1124 52.5672 59.3802 55.4824 61.2511C57.6805 62.6648 59.6195 63.1761 59.8719 63.3506C59.9051 64.0002 60.0644 67.5013 59.5465 68.53C59.0219 69.5587 55.5156 69.9858 55.5156 69.9858H60.9211C60.9211 69.9858 64.3211 71.0927 64.3211 68.0909C64.3211 65.0891 65.0316 61.8888 65.5562 60.9443C65.8418 60.433 68.073 59.3321 69.5605 57.5395C70.8223 56.0115 71.234 54.3933 71.3867 53.7135C71.5394 53.0338 72.0176 51.5539 70.8621 50.8681C69.5672 50.1102 51.7637 56.2461 51.7637 56.2461V56.2461Z" fill="#AB580F"/>
<path d="M5.72418 28.9953C5.72418 28.9953 2.49683 31.9189 2.84879 37.6037C3.20074 43.2884 10.2597 57.2748 41.0457 58.2192C71.3867 59.1516 80.7632 44.3231 81.8523 39.9738C82.8484 35.9975 81.5999 32.9055 79.5945 30.4571C77.589 28.0087 32.0609 26.0717 32.0609 26.0717L5.72418 28.9953Z" fill="#FCE9C5"/>
<path d="M8.16796 27.4132C8.16796 27.4132 3.86484 28.887 4.15703 33.7356C4.50898 39.5828 14.5363 53.3285 42.2609 53.2443C66.9375 53.1721 80.4578 41.0025 80.6305 34.6019C80.8031 28.2795 75.3113 27.9666 75.3113 27.9666L8.16796 27.4132Z" fill="#FFA828"/>
<path d="M61.3594 39.7392L43.0446 42.1094C43.0446 42.1094 44.3793 45.1894 49.3199 47.3249C54.8117 49.6951 59.4336 49.2198 59.6992 50.8019C59.9582 52.3841 60.2172 57.0883 60.2172 57.0883L62.3156 56.7273L67.6149 44.8585L70.291 41.8266C70.291 41.8266 71.991 37.5315 70.0719 35.9554C68.1594 34.3673 61.3594 39.7392 61.3594 39.7392V39.7392Z" fill="#AF5713"/>
<path d="M17.498 11.1409C17.2391 11.1409 10.4324 12.0072 10.4324 12.0072C10.4324 12.0072 4.64843 14.8345 4.41601 22.4383C4.15038 30.9684 12.8762 42.741 41.391 42.8974C70.6031 43.0598 80.5309 32.6468 81.1551 25.4401C81.8988 16.8558 76.5332 13.3487 76.5332 13.3487L17.498 11.1409V11.1409Z" fill="#FCE9C5"/>
<path d="M6.94612 18.9612C7.04573 28.123 17.8434 37.2066 42.4336 38.0007C66.4328 38.7707 79.5813 28.2073 79.4949 19.3583C79.4153 11.1409 64.9387 3.16421 42.002 3.08601C18.7133 3.00781 6.85979 10.9063 6.94612 18.9612V18.9612Z" fill="#FFA828"/>
<path d="M56.691 45.6105C56.7574 47.4452 61.6051 48.2333 61.8973 49.671C62.1895 51.1148 62.3356 56.9138 62.3356 56.9138C62.3356 56.9138 61.0141 57.4131 59.5465 57.6898C57.8863 58.0027 56.0734 58.141 56.3457 59.0013C57.0164 61.0887 61.9371 62.1595 61.9371 62.1595C61.9371 62.1595 62.1695 65.3898 62.0832 66.7434C61.884 69.9136 60.9211 70.455 60.9211 70.455L63.3383 72.2416L66.3731 68.8428C66.3731 68.8428 66.227 65.7869 66.1805 64.7823C66.134 63.7777 66.0344 61.6842 66.0344 61.6842C66.0344 61.6842 68.4648 60.054 70.1051 57.1906C71.327 55.055 71.3402 53.521 69.7996 54.1767C68.259 54.8324 65.8285 56.0476 65.8285 56.0476C65.8285 56.0476 65.5098 50.6816 66.0344 49.286C66.5656 47.8904 70.809 42.5184 70.1781 41.5981C69.5473 40.6777 65.6957 42.6869 63.3781 43.2584C61.0738 43.8178 56.6379 44.2991 56.691 45.6105V45.6105Z" fill="#D0701C"/>
<path d="M31.0781 3.12813C31.0781 3.12813 25.2941 3.67555 24.7563 7.05633C24.2117 10.4371 24.9355 10.9304 22.525 12.1877C20.1145 13.4449 13.3477 16.7054 12.9824 17.9025C12.6172 19.0996 11.8602 22.5466 20.4133 23.4248C26.3301 24.0324 28.1164 23.3587 31.616 25.6506C35.1156 27.9426 35.8727 32.1234 41.5438 33.9041C45.3023 35.0831 47.9387 34.1206 51.0731 35.4862C54.2074 36.8517 57.1625 39.4986 60.6223 38.891C63.5441 38.3797 65.4566 30.433 65.4566 30.2646C65.4566 30.0962 65.7555 21.1028 65.7555 21.1028C65.7555 21.1028 64.4539 19.5207 65.3504 17.9145C65.9613 16.8137 70.5301 14.0044 71.1941 12.3501C71.8184 10.798 71.5461 9.10766 70.7027 8.5061C69.8594 7.90453 60.775 9.46258 60.5957 9.24C60.4164 9.01742 49.632 6.94805 48.0648 6.50891C46.4977 6.07578 31.0781 3.12813 31.0781 3.12813Z" fill="#AB580F"/>
<path d="M63.4844 17.1505C63.0527 20.6215 68.0067 20.7539 68.1859 25.3378C68.3055 28.502 65.8949 30.415 64.8723 32.5926C63.8496 34.7763 62.4617 36.6833 60.2371 37.1224C58.0059 37.5616 54.0215 34.65 50.5883 33.501C47.1551 32.358 45.2692 34.1748 40.136 31.5459C37.1078 29.9999 33.7942 23.7497 29.6969 22.6608C27.8309 22.1615 23.7602 22.2578 20.3535 21.8427C16.2828 21.3434 12.9625 20.2666 12.8895 18.5702C12.7102 14.0946 24.5172 12.1335 25.6594 10.5514C26.8016 8.96928 24.1387 3.96428 31.3238 2.85741C40.8996 1.38358 45.4219 5.04108 51.3785 6.02163C57.3352 7.00217 67.4953 6.05171 70.052 7.87444C74.6274 11.1469 63.9094 13.7698 63.4844 17.1505V17.1505Z" fill="#CF701E"/>
<path d="M35.7465 18.1371C35.8992 18.6785 36.6164 22.4262 38.6684 23.0639C40.7203 23.6955 45.216 22.5887 49.0676 21.8427C53.8953 20.9043 59.3805 20.0561 59.2078 18.8169C58.9488 16.8979 56.452 14.8766 54.3336 12.1155C53.0453 10.4311 51.8102 7.85039 49.8113 8.21133C47.8125 8.57227 35.7465 18.1371 35.7465 18.1371V18.1371Z" fill="#AC5813"/>
<path d="M18.1156 15.9053C16.9402 16.17 16.2894 18.3898 18.866 19.4846C22.1664 20.8862 26.1175 20.7058 26.3699 19.1658C26.6222 17.6258 22.7707 17.9867 21.4691 17.1746C20.1675 16.3565 19.716 15.5444 18.1156 15.9053V15.9053Z" fill="#FDFFFC"/>
<path d="M28.4219 19.617C27.5852 20.3208 28.4883 21.1148 29.5773 21.4938C30.6664 21.8728 31.5297 21.9029 32.0211 21.3134C32.5125 20.7298 31.5629 19.8155 30.6 19.5568C29.6371 19.2981 28.9266 19.1898 28.4219 19.617Z" fill="#FDFFFC"/>
<path d="M32.4395 9.73327C32.4395 9.73327 32.7582 8.86702 34.3121 8.64444C35.866 8.42187 39.7242 8.42187 41.4176 8.06694C43.1176 7.71202 45.9797 6.40062 47.4605 6.68937C48.948 6.97812 50.4621 9.90772 50.8406 10.4551C52.441 12.7471 53.716 14.3713 53.8887 15.2376C54.068 16.1038 46.0062 19.1477 45.6211 19.1477C45.2359 19.1477 39.6445 22.6368 38.1238 19.8215C36.6031 17.0062 32.5059 9.63702 32.4395 9.73327V9.73327Z" fill="#FADE62"/>
<path d="M44.9172 16.6813C43.0445 17.0362 38.2367 18.2213 38.2367 18.2213L37.4597 20.0441C37.4597 20.0441 37.7785 21.4878 38.8742 21.548C39.9699 21.6141 43.5226 20.6937 46.2387 20.0561C48.7156 19.4726 53.7293 18.4078 53.9418 17.9927C54.1543 17.5776 54.3867 15.003 53.7558 14.9007C53.3707 14.8405 51.2191 15.3639 50.0172 15.6226C48.3238 15.9835 46.7898 16.3324 44.9172 16.6813V16.6813Z" fill="#F5AD02"/>
<path d="M31.7754 12.0733C31.9215 12.4824 33.1898 14.9548 34.2125 16.4287C35.2351 17.9025 37.6789 21.5058 38.3828 21.572C39.0269 21.6322 38.9605 20.6336 39.0136 19.9899C39.0734 19.25 39.0535 18.5762 38.8808 18.0649C38.7015 17.5536 37.1808 15.3759 36.3707 14.2209C35.5605 13.0659 33.1898 9.25803 32.6586 9.41444C32.1273 9.57686 31.5297 11.3695 31.7754 12.0733V12.0733Z" fill="#FDFFFC"/>
<path d="M38.6551 25.9213C37.5262 26.4327 38.9008 29.3803 41.9754 30.6616C45.05 31.943 48.3172 31.7505 48.8683 30.2105C49.3664 28.8329 45.2027 28.7848 43.4961 28.0328C40.7402 26.8177 40.1758 25.2295 38.6551 25.9213V25.9213Z" fill="#FDFFFC"/>
<path d="M22.8902 47.4212C22.711 48.0288 23.1891 48.5882 25.002 48.9492C26.8215 49.3101 27.5453 49.1597 27.7445 48.5882C27.9438 48.0167 27.3461 47.4513 25.7258 47.0603C23.9262 46.6271 23.0231 46.97 22.8902 47.4212Z" fill="#FCE9C5"/>
<path d="M35.0824 49.6349C34.8168 50.4109 36.0387 51.5178 39.8106 51.6381C43.7484 51.7644 45.9598 51.3073 45.9863 50.05C46.0063 49.2078 42.9781 49.5387 39.9367 49.3943C36.902 49.2439 35.3281 48.9191 35.0824 49.6349Z" fill="#FCE9C5"/>
<path d="M11.9199 54.4234C11.4949 54.8565 11.7606 55.3077 12.5176 55.8912C13.4074 56.577 14.6293 56.8176 15.1274 56.2822C15.6254 55.7468 14.4633 55.1452 13.8059 54.6941C13.1418 54.2429 12.4446 53.882 11.9199 54.4234Z" fill="#FCE9C5"/>
</svg>
